<svg width="81" height="81" viewBox="0 0 81 81" fill="none" xmlns="http://www.w3.org/2000/svg">
<path d="M40.502 25.3125C32.1326 25.3125 25.3137 32.1311 25.3137 40.5C25.3137 48.8689 32.1326 55.6875 40.502 55.6875C48.8713 55.6875 55.6902 48.8689 55.6902 40.5C55.6902 32.1311 48.8713 25.3125 40.502 25.3125ZM79.4851 38.0479L64.5025 30.5648L69.8026 14.6813C70.5146 12.5297 68.4736 10.4889 66.3378 11.2166L50.4534 16.5164L42.9542 1.51875C41.9417 -0.50625 39.0622 -0.50625 38.0497 1.51875L30.5663 16.5006L14.6661 11.2008C12.5145 10.4889 10.4736 12.5297 11.2013 14.6654L16.5014 30.549L1.51882 38.0479C-0.506275 39.0604 -0.506275 41.9396 1.51882 42.9521L16.5014 50.4352L11.2013 66.3346C10.4894 68.4861 12.5303 70.527 14.6661 69.7992L30.5505 64.4994L38.0339 79.4812C39.0464 81.5062 41.9259 81.5062 42.9384 79.4812L50.4218 64.4994L66.3061 69.7992C68.4578 70.5111 70.4987 68.4703 69.771 66.3346L64.4709 50.451L79.4535 42.968C81.5102 41.9396 81.5102 39.0604 79.4851 38.0479ZM54.82 54.8174C46.9253 62.7117 34.0786 62.7117 26.1839 54.8174C18.2892 46.923 18.2892 34.077 26.1839 26.1826C34.0786 18.2883 46.9253 18.2883 54.82 26.1826C62.7148 34.077 62.7148 46.923 54.82 54.8174Z" fill="#F1F1F1"/>
</svg>
