<svg width="43" height="43" viewBox="0 0 43 43" fill="none" xmlns="http://www.w3.org/2000/svg">
<path d="M0 0C45.8411 0 35.1871 30.4551 35.235 35.1583L43 43H40.5045L33.7473 36.1661C30.004 36.5692 21.8071 39.4775 13.1687 32.6147C4.51116 25.752 4.99107 17.5359 0 0ZM7.64978 4.41518C2.87946 2.1596 7.15067 5.29821 7.15067 5.29821C11.4891 8.29286 13.4855 12.3721 15.8083 16.8065C18.8317 22.5846 23.3908 30.2152 29.6489 32.9027C35.8877 35.5902 32.9315 34.1025 30.2248 32.0868C27.5181 30.052 23.6788 23.7364 21.4904 19.59C18.4478 13.831 15.6355 8.20647 7.64978 4.41518Z" fill="#E5EAEC"/>
</svg>
